<svg width="24" height="24" viewBox="0 0 24 24" fill="white">
  <path d="M22.56 12.25c0-.78-.07-1.53-.2-2.25H12v4.26h6.64c-.28 1.45-1.12 2.68-2.39 3.5v3h3.86c2.26-2.08 3.56-5.15 3.56-8.51z"/>
  <path d="M12 23c3.03 0 5.58-1 7.44-2.71l-3.86-3h-.01c-1.14.76-2.6 1.22-4.58 1.22-3.53 0-6.51-2.39-7.58-5.61H1.09v3.53C2.95 20.63 7.06 23 12 23z"/>
  <path d="M5.42 14.58c-.77-2.22-.77-4.61 0-6.83V4.34H1.09C.31 6.74 0 9.24 0 12s.31 5.26 1.09 7.66l4.33-3.36z"/>
  <path d="M12 5.38c1.98 0 3.44.73 4.58 1.22l3.86-3h.01C17.58 2 15.03 1 12 1 7.06 1 2.95 3.37 1.09 7.34l4.33 3.36c1.07-3.22 4.05-5.32 7.58-5.32z"/>
</svg>