<svg width="224" height="48" viewBox="0 0 224 48" fill="none" xmlns="http://www.w3.org/2000/svg">
<path d="M23.6413 41.8V5.74932L19.0839 13.7155V33.8338L23.6413 41.8Z" fill="#0439AA"/>
<path d="M32.7561 44.8999V2.87446L26.4897 13.828V33.9464L32.7561 44.8999Z" fill="#0439AA"/>
<path d="M43.5798 48V0L35.6044 13.9408V34.0592L43.5798 48Z" fill="#0439AA"/>
<path d="M17.4717 10.9233L19.9385 6.61147H0V41.1061H19.9385V41.0545L17.5012 36.7942H3.73847V10.9233H17.4717Z" fill="#0439AA"/>
<path d="M65.9279 32.9455C64.6525 32.9455 63.4094 32.773 62.1986 32.4279C60.9878 32.0665 60.0111 31.5983 59.2685 31.0233L60.673 27.6225C61.3834 28.1483 62.2148 28.5672 63.1673 28.8793C64.1198 29.1915 65.0561 29.3476 65.9764 29.3476C66.945 29.3476 67.6553 29.2079 68.1074 28.9286C68.5756 28.6493 68.8096 28.2715 68.8096 27.795C68.8096 27.2857 68.5433 26.9079 68.0105 26.6615C67.4939 26.3986 66.6706 26.1357 65.5405 25.8729C64.2812 25.5607 63.2561 25.2486 62.465 24.9364C61.6901 24.6079 61.012 24.0986 60.4309 23.4086C59.8497 22.7021 59.5591 21.7575 59.5591 20.5746C59.5591 19.5396 59.8174 18.6032 60.334 17.7653C60.8667 16.9274 61.6578 16.2703 62.7072 15.7938C63.7565 15.301 65.04 15.0545 66.5575 15.0545C67.6231 15.0545 68.6482 15.186 69.633 15.4488C70.6339 15.6953 71.5138 16.0649 72.2726 16.5578L71.0133 19.9832C69.5119 19.096 68.0105 18.6524 66.5091 18.6524C65.5566 18.6524 64.8543 18.8085 64.4023 19.1207C63.9664 19.4328 63.7485 19.8353 63.7485 20.3282C63.7485 20.8375 64.0068 21.2153 64.5234 21.4618C65.04 21.7082 65.8633 21.9628 66.9934 22.2257C68.2365 22.5214 69.2536 22.8336 70.0447 23.1621C70.8519 23.4743 71.5461 23.9754 72.1273 24.6654C72.7085 25.3554 72.999 26.2836 72.999 27.45C72.999 28.4686 72.7327 29.3968 72.1999 30.2347C71.6672 31.0561 70.868 31.7133 69.8025 32.2062C68.737 32.699 67.4455 32.9455 65.9279 32.9455Z" fill="black"/>
<path d="M79.4153 19.0221V15.3749H93.6786V19.0221H88.6659V32.6251H84.4523V19.0221H79.4153Z" fill="black"/>
<path d="M103.958 29.1504L102.65 32.6251H98.3394L105.483 15.3749H109.648L116.792 32.6251H112.385L111.077 29.1504H103.958ZM107.517 19.7614L105.289 25.7497H109.745L107.517 19.7614Z" fill="black"/>
<path d="M130.321 32.6251H126.107V26.415L119.932 15.3749H124.388L128.408 22.5707L132.403 15.3749H136.496L130.321 26.4643V32.6251Z" fill="black"/>
<path d="M148.654 32.9455C147.378 32.9455 146.135 32.773 144.924 32.4279C143.713 32.0665 142.737 31.5983 141.994 31.0233L143.399 27.6225C144.109 28.1483 144.94 28.5672 145.893 28.8793C146.845 29.1915 147.782 29.3476 148.702 29.3476C149.671 29.3476 150.381 29.2079 150.833 28.9286C151.301 28.6493 151.535 28.2715 151.535 27.795C151.535 27.2857 151.269 26.9079 150.736 26.6615C150.22 26.3986 149.396 26.1357 148.266 25.8729C147.007 25.5607 145.982 25.2486 145.191 24.9364C144.416 24.6079 143.738 24.0986 143.156 23.4086C142.575 22.7021 142.285 21.7575 142.285 20.5746C142.285 19.5396 142.543 18.6032 143.06 17.7653C143.592 16.9274 144.383 16.2703 145.433 15.7938C146.482 15.301 147.766 15.0545 149.283 15.0545C150.349 15.0545 151.374 15.186 152.359 15.4488C153.36 15.6953 154.239 16.0649 154.998 16.5578L153.739 19.9832C152.238 19.096 150.736 18.6524 149.235 18.6524C148.282 18.6524 147.58 18.8085 147.128 19.1207C146.692 19.4328 146.474 19.8353 146.474 20.3282C146.474 20.8375 146.732 21.2153 147.249 21.4618C147.766 21.7082 148.589 21.9628 149.719 22.2257C150.962 22.5214 151.979 22.8336 152.77 23.1621C153.578 23.4743 154.272 23.9754 154.853 24.6654C155.434 25.3554 155.725 26.2836 155.725 27.45C155.725 28.4686 155.458 29.3968 154.926 30.2347C154.393 31.0561 153.594 31.7133 152.528 32.2062C151.463 32.699 150.171 32.9455 148.654 32.9455Z" fill="black"/>
<path d="M171.556 32.6251H167.342V26.415L161.167 15.3749H165.623L169.643 22.5707L173.638 15.3749H177.731L171.556 26.4643V32.6251Z" fill="black"/>
<path d="M199.992 32.6251H196.505L189.071 23.0143V32.6251H184.905V15.3749H188.392L195.827 24.9857V15.3749H199.992V32.6251Z" fill="black"/>
<path d="M217.171 32.9455C215.508 32.9455 214.007 32.5676 212.667 31.8119C211.327 31.0397 210.277 29.9719 209.519 28.6083C208.76 27.2447 208.381 25.7086 208.381 24C208.381 22.2914 208.76 20.7553 209.519 19.3917C210.294 18.0282 211.351 16.9685 212.691 16.2128C214.031 15.4406 215.532 15.0545 217.195 15.0545C218.632 15.0545 219.932 15.3256 221.094 15.8678C222.256 16.4099 223.225 17.1985 224 18.2335L221.288 20.895C220.238 19.5478 218.947 18.8742 217.413 18.8742C216.493 18.8742 215.67 19.0878 214.943 19.515C214.233 19.9421 213.676 20.55 213.272 21.3385C212.869 22.1107 212.667 22.9978 212.667 24C212.667 25.0022 212.869 25.8975 213.272 26.6861C213.676 27.4583 214.233 28.0579 214.943 28.485C215.67 28.9122 216.493 29.1258 217.413 29.1258C218.979 29.1258 220.271 28.444 221.288 27.0804L224 29.7418C223.225 30.7769 222.256 31.5737 221.094 32.1322C219.932 32.6744 218.624 32.9455 217.171 32.9455Z" fill="black"/>
</svg>
